<?xml version="1.0"?><svg version="1.2" baseProfile="tiny-ps" viewBox="0 0 300 300" xmlns="http://www.w3.org/2000/svg" xmlns:xlink="http://www.w3.org/1999/xlink"><title>Vipromor Construcciones y Remodelaciones</title><g><g fill="#0494e0" transform="matrix(.1 0 0 -.1 0 300)"><path d="M0 1500V0h3000v3000H0V1500z"/></g><g fill="#0684c7" transform="matrix(.1 0 0 -.1 0 300)"><path d="M0 1500V0h3000v3000H0V1500zm1595 759-65-81v134l63 79 62 79 3-65 3-65-66-81zm-187-229-63-80-3 65-3 65 63 78 63 77 3-63 3-63-63-79zm-132-154c-3-12-18-34-34-51-15-16-53-61-84-100-31-38-70-86-87-105l-30-35v130l117 143 117 144 3-53c2-29 1-62-2-73zm929-85c3-6 1-27-3-49l-9-39-78-94c-42-52-81-95-86-97l-9-4v158l53 67 52 67h74l6-9zM977 1513c-3-2-26-3-52-1l-47 3 49 61 48 61 3-60c2-32 1-61-1-64zm983 37v-40h-71l16 16c9 9 23 27 32 40 8 13 17 24 19 24s4-18 4-40zM866 1376c-3-12-19-37-36-56l-30-35-1 40c-1 22-1 53 0 69l3 29 31 38 32 38 3-51c2-29 1-61-2-72zm68 72c-10-13-20-25-21-27-2-2-3 8-3 22v27h43l-19-22zm1026-3v-26l-102-125c-57-69-111-136-120-147l-18-22v174l45 53c25 29 55 68 67 85l23 33h105v-25zM679 1135l-53-65h-66v55l83 102 82 102 3-64 3-65-52-65zm981 10v-75h-121l10 18c5 9 18 26 28 37s31 37 47 58c16 20 30 37 32 37s4-34 4-75zM915 971c0-8-8-19-17-25l-17-11-12 12-12 12 7 16 6 16 22-3 23-3v-14zM620 860l36-115 9 1 10 2 35 113 36 114 33 3 34 3-5-13c-3-7-27-77-54-155l-49-143h-80l-50 146c-27 80-52 151-54 156l-3 9 33-3 33-3 36-115zm290-75V670h-50v230h50V785zm120 95c0-11 3-20 8-20 4 0 15 9 25 20l17 20h59l28-24 28-24V722l-24-26-24-26h-76l-14 20-14 20-6-7c-4-3-7-33-7-65v-58h-50v320h50v-20zm280-2v-22l20 22 21 22h39v-50h-59l-11-19-10-20V670h-60v230h60v-22zm283 1 27-20 10-37 10-38-10-35c-12-42-36-67-76-78l-29-8-29 8c-16 5-39 18-51 29l-23 21-6 31-6 31 10 38 10 38 27 20 26 21h84l26-21zm147 1c0-11 2-20 5-20s14 9 25 20l20 20h59l15-22 16-22 23 22 23 22h61l19-21 18-20 4-95 4-94h-62v170l-26 12-26 12-19-23-19-23V670h-50v169l-20 11-20 11-20-11-20-11V670h-60v230h50v-20zm510 3c34-20 50-52 50-99v-35l-15-29c-20-38-43-50-97-50h-43l-21 18c-31 25-44 55-44 102v42l34 34 34 34h74l28-17zm160-5v-21l23 21c13 12 31 22 40 22h17v-50h-59l-11-19-10-20V670h-50v230h50v-22zM602 503l-5-28-5 13c-4 13 4 42 11 42 2 0 2-12-1-27zm280-7 4-35-8 5c-8 5-12 64-4 64 2 0 6-15 8-34zm1115-18-4-23v40l-1 40 5-17c2-10 2-28 0-40zm-1080-5-5-18v60l5-12c2-7 2-21 0-30zm40 15-5-13-1 19c-1 11 2 17 5 13 3-3 4-12 1-19zm40-15-5-18v60l5-12c2-7 2-21 0-30zm96 22c-3-9-8-14-10-11-3 3-2 9 2 15 9 16 15 13 8-4zm64-22-5-18v60l5-12c2-7 2-21 0-30zm540 0-5-18v60l5-12c2-7 2-21 0-30zm70 0-5-18v60l5-12c2-7 2-21 0-30zm47-6 11-9-15 5-15 4-2 24-2 24 6-20c3-11 10-24 17-28zm343 6-5-18v60l5-12c2-7 2-21 0-30zm71 12c-3-3-9 2-12 12l-7 18 12-12c7-7 10-15 7-18zm59-12-5-18v60l5-12c2-7 2-21 0-30zm-1593-6 11-9-15 5-15 4-2 19-3 19 7-15c3-8 11-19 17-23zm23 11-5-13-1 19c-1 11 2 17 5 13 3-3 4-12 1-19zm335-4 21 5-11-11-11-11-15 6-16 6 1 18 1 18 5-18 5-19 20 6zm-207 7 5-10-8-5-9-5v14c0 17 3 19 12 6zm1570 0 5-10-8-5-9-5v14c0 17 3 19 12 6zm-1290-11c-3-5-12-10-18-10h-12l15 10c19 12 23 12 15 0zm80-8c-3-3-11 0-18 7l-12 12 18-7c10-3 15-9 12-12zm288 3c-3-9-8-14-10-11-3 3-2 9 2 15 9 16 15 13 8-4zm632 5c-3-5-12-10-18-10h-12l15 10c19 12 23 12 15 0zm80-8c-3-3-11 0-18 7l-12 12 18-7c10-3 15-9 12-12zM1054 846l-19-14v-94l19-14c26-18 51-18 70 2l16 15v86l-18 16c-23 21-42 21-68 3zm432-8-16-22v-73l18-16 19-17h42l15 22 16 22v62l-16 22-15 22h-48l-15-22zm677 16c-7-3-17-20-23-39l-11-33 15-36 15-36h59l11 13c6 8 14 27 17 44l6 30-16 32-17 31-22-1c-12 0-27-3-34-5z"/></g><g fill="#0874ae" transform="matrix(.1 0 0 -.1 0 300)"><path d="M0 1500V0h3000v3000H0V1500zm1665 826-6-159-37-44c-20-25-49-59-64-76l-27-32-1 183v183l62 74 63 75 8-22 9-23-7-159zm-257-464-63-77-6 60c-9 81-9 222-1 267l7 37 60 77 60 76 3-181 2-182-62-77zm-128 25v-182l-77-97-78-98-45 3-45 2-3 70c-2 39 0 98 3 133l7 62 116 144c64 80 118 145 120 145 1 1 2-81 2-182zm688-373c-3-2-59-3-125-2l-120 3 116 144 116 145 9-142c5-79 6-145 4-148zm240 201-6-85-52-60-52-60h-78v290h193l-5-85zM980 1605v-95H870v-308l-34-41-34-41-7 75c-4 41-6 121-3 178l3 104 90 111c49 62 91 112 92 112 2 0 3-43 3-95zm0-202-1-68-34-40-35-40v215h70v-67zm100 59c0-5-9-17-20-27l-20-18v53h20c11 0 20-4 20-8zm885-59-7-68-105-130c-58-71-112-131-119-133l-14-3v401h252l-7-67zm95 59c0-5-9-17-20-27l-20-18v53h20c11 0 20-4 20-8zm-400-62v-30h-60l27 30c14 17 28 30 30 30 1 0 3-13 3-30zm-921-120c1-41-2-105-6-142l-6-68H560v122l82 99 83 99 7-17c3-10 7-52 7-93zm925 18c3-13 6-69 6-125v-103h-140v210l12 20 13 20h103l6-22zm-197-225c-3-2-27-3-55-1l-50 3 51 63 52 64 3-62c2-34 1-64-1-67zm-557-88 12-15-6-16-6-15-22 3-23 3-3 19-4 19 14 8c18 12 24 11 38-6zM623 858l39-122 8 14c4 7 23 62 41 121l34 109h67l-4-12c-3-7-26-77-53-155l-48-143h-85l-48 143c-26 78-49 148-52 155l-4 12h67l38-122zm297-73V670h-60v230h60V785zm114 93 6-23 15 23 16 22h77l26-31 26-31V730l-27-30-28-31-33-1-32-1-20 18-20 18V580h-60v320h48l6-22zm276 0v-22l16 22 15 22h49v-50h-49l-15-16-16-15V670h-60v230h60v-22zm289-3 30-26 6-43 7-44-16-34-17-35-26-14-25-14-37 1-38 1-26 18-27 17-11 38-12 38 7 35 7 36 30 25 31 26h86l31-25zm141 3v-21l23 21 23 22h61l18-20 18-20 19 20 19 20h68l20-26 21-27V670h-60v78c0 42-4 82-8 88-11 17-35 22-54 12l-18-9V670h-60v155l-9 13-8 14-29-4-29-3-3-87-3-88h-59v230h50v-22zm526-1 27-24 5-56 4-57-17-26-17-26-36-15-36-15-37 11-38 11-20 27-21 26v88l15 29c8 16 23 34 32 39l18 10 47 1h47l27-23zm145 1v-23l16 23 15 22h48v-50h-43l-19-17-18-16V670h-60v230h60l1-22zM650 518v-10l-15 12c-8 7-15 14-15 16s7 1 15-2c8-4 15-11 15-16zm-45-15v-28l23 1 23 1-10-10c-5-5-17-7-27-5l-19 3-3 18c-3 17 3 47 11 47 1 0 3-12 2-27zm279-13c1-16-2-30-6-30-5 0-8 17-8 37v36l7-6c3-4 7-20 7-37zm680 25-6-15h44l-6 17-7 17 8-8c4-4 8-20 8-36v-29l-17 15-16 15-11-18-10-18-1 38v37h19l-5-15zm346-20v-35h-19l4 28c2 15 4 30 4 35 1 4 3 7 6 7s5-16 5-35zm87-17-4-23v40l-1 40 5-17c2-10 2-28 0-40zM825 509l-7-10 18-14 19-14-18-7c-10-3-21-4-24 0-4 3 2 6 12 6h19l-19 13-18 14 7 11c4 7 9 12 12 12s2-5-1-11zm401-34-6-16-17 3-18 3-2 25-1 25 5-22 4-23h29v13c0 7-4 18-10 25l-10 12 16-14 17-14-7-17zm832 4-4-24-5 33-6 33 10-10 9-9-4-23zm42 26-12-14 7-11 7-11 15 5 14 6-6-10c-10-15-32-12-39 6l-6 17 11 13c6 8 14 14 16 14 3 0 0-7-7-15zm232 3c-7-7-12-18-12-24v-13l18-4 17-5-18-1-18-1-5 15-6 15 12 15c7 8 15 15 18 15s1-5-6-12zM697 470h15l-5 21-6 22 11-11 11-11-7-16-6-16-17 3-18 3-1 20-1 20 4-17 4-18h16zm50 3-5-18v60l5-12c2-7 2-21 0-30zm41 1-4-19-6 28-6 29 10-10 10-10-4-18zm134 11c-2-14-6-25-8-25s-4 11-4 25v25h17l-5-25zm52-24c-7-9-24 13-24 32v22l13-25c8-14 12-27 11-29zm23 12-5-18v60l5-12c2-7 2-21 0-30zm55 0 21 6-11-11-11-11-15 6-16 6 1 23 2 23 4-23 5-24 20 5zm44 20-1-18 17 1 18 2-6-9c-15-24-51-1-40 26 7 20 14 19 12-2zm61-20-5-18v60l5-12c2-7 2-21 0-30zm100 0-5-18v60l5-12c2-7 2-21 0-30zm30 0-5-18v60l5-12c2-7 2-21 0-30zm36 18-5-19 19-5 18-5-17-1c-20-1-32 15-24 34 8 22 15 18 9-4zm176-19c-14-40-24-41-25-1l-1 31 8-13 8-13 7 17c12 31 15 12 3-21zm137 21-3-18 16-7 16-7h-17c-21-1-32 15-24 34 8 21 15 19 12-2zm61-20-5-18v60l5-12c2-7 2-21 0-30zm43 27c0-5-2-10-4-10-3 0-8 5-11 10l-6 10h10c6 0 11-4 11-10zm30-15c0-14-2-25-4-25s-6 11-8 25l-5 25h17v-25zm47-15h15l-5 21-6 22 11-11 11-11-7-16-6-16-17 3-18 3-1 20-1 20 4-17 4-18h16zm141-3 17-5-21-1-22-1-6 16-6 16 7 11 8 12 3-22 3-22 17-4zm199 6-5-18v60l5-12c2-7 2-21 0-30zm46 0 12 4-2 18-1 17 9-9 10-10-7-17-7-17-16 3-16 3-1 20-1 20 4-18 5-18 11 4zm57 12v-25h-20v50h20v-25zm27-12-5-18v60l5-12c2-7 2-21 0-30zm-869 5c-3-7-12-14-22-14l-16-2 15 5 15 5-5 9-6 9h23l-4-12zm619-3c0-8-4-15-9-15-4 0-8 7-8 15s4 15 8 15c5 0 9-7 9-15zm381 3c-3-7-12-14-22-14l-16-2 15 5 15 5-5 9-6 9h23l-4-12zm-543-8 6-10h-10c-6 0-11 5-11 10 0 6 2 10 4 10 3 0 8-4 11-10zm-817 373c-8-10-18-27-22-37l-7-19 12-34 11-33 24-6 25-6 19 17 20 18v77l-20 20c-25 25-42 25-62 3zm428-5-16-22v-62l16-22 15-22h47l13 17 14 16v84l-14 16-13 17h-47l-15-22zm671 4-17-19v-82l16-15c8-9 24-16 34-16s26 7 34 16l16 15v86l-18 16c-24 22-45 21-65-1z"/></g><g fill="#086596" transform="matrix(.1 0 0 -.1 0 300)"><path d="M0 1500V0h3000v3000H0V1500zm1668 855c0-110-3-234-6-275l-7-75-60-73-60-73-3 292-2 291 62 78 63 78 7-22c3-11 6-111 6-221zm-198-288v-293l-64-77-64-77-7 104c-4 57-6 188-4 292l4 190 64 77c35 42 65 77 67 77s4-132 4-293zm294 71c-16-18-32-37-36-42l-8-10v84h74l-30-32zm-495-605-12-23h-229l4 163 4 163 119 147 120 148 3-288 2-288-11-22zm700 155 1-178h-250v211l51 62c28 34 81 100 118 146l66 84 6-74c4-41 7-154 8-251zm239-11-4-123-34-43-35-43-3 21-3 21h-109v290h192l-4-123zm-1228-41v-125l-52-3-53-3-3-217-2-218h-80v439l10 26c9 22 168 225 177 225 2 0 3-56 3-124zm689-213 1-63h-140v128l60 74c33 40 61 78 62 83 2 17 16-157 17-222zm-689-100v-148l-35-40-34-40-1 188v187h70v-147zm230 142c0-3-37-52-82-108l-83-101-7 54c-3 30-6 79-7 108l-1 52h90c50 0 90-2 90-5zm760-52c0-32-3-81-6-110l-7-52-74-91-74-90h-89v400h250v-57zm120 30v-28l-35-44-35-44v143h70v-27zM739 1243l1-173H560v182l83 102 82 102 7-20c3-12 6-99 7-193zm731 147v-20h-15c-18 0-19 12-3 28s18 15 18-8zm0-195v-125h-137l4 93 5 92 25 33 24 32h79v-125zm200 0v-125h-140v250h140v-125zm-393-122c-3-2-23-3-45-1l-41 3 42 51 42 51 3-50c2-27 1-51-1-54zm-367-88 12-15-6-15-5-15h-49l-5 13c-6 17 11 47 27 47 8 0 19-7 26-15zM623 860c21-66 39-120 42-120s21 54 42 120l37 120h33c18 0 33-3 33-6s-23-73-51-155l-52-149h-84l-52 148c-28 81-51 151-51 155s15 7 33 7h33l37-120zm297-75V670h-60v230h60V785zm120 98v-16l18 16 19 17h30c45 0 62-9 78-41l15-28v-92l-15-29-15-28-36-12-36-12-29 21-29 22V580h-60v320h60v-17zm270 0v-16l18 16 19 17h43v-50h-49l-15-22-16-22V670h-60v230h60v-17zm291-11 31-28 5-44 4-45-18-35-18-35-38-14-38-14-40 12-40 12-19 32-20 32v32c0 42 14 76 41 102l23 21h96l31-28zm149 11v-16l18 16 19 17h63l16-19 16-19 19 19 19 19h66l20-14 19-14 3-101 4-101h-62v158l-14 12-15 12-23-4-23-3-3-87-3-88h-59v156l-12 12c-7 7-22 12-34 12h-22l-6-16c-3-9-6-49-6-90v-74h-60v230h60v-17zm515-5 26-23 9-38 8-38-9-33-9-32-26-25-26-24-50 1-51 1-29 31-28 32v112l29 29 29 29h101l26-22zm145 5v-16l18 16 19 17h43v-50h-49l-15-22-16-22V670h-60v230h60v-17zM634 534c9-3 16-11 16-16v-10l-13 10-13 11-13-8-13-8 4-19 4-19 24 3 25 3-12-12-11-11-18 4-19 3-3 29-4 29 14 8c16 10 13 10 32 3zm962-2 12-7-2-32c-1-38-4-40-22-15l-13 17-1-17v-18h-20v33c0 45 16 59 46 39zm-712-42c1-16-2-30-5-30-8 0-17 58-11 65 9 9 15-4 16-35zm1026 5v-35h-48l-6 17-7 17 14 14 15 14-5-26-5-26h22v60h20v-35zm87-17-4-23v40l-1 40 5-17c2-10 2-28 0-40zM708 511l14-8-4-19-3-19-18-3-17-3-6 15c-7 18 1 46 13 46 4 0 14-4 21-9zm82-32c0-30-17-22-22 11l-4 30 13-11c7-7 13-20 13-30zm55 31 6-10-15 6-16 6v-22h32l-4-12c-3-7-13-14-24-15l-19-3 20 9 20 8-22 7c-25 8-30 22-10 29 19 8 25 8 32-3zm86-4c-5-6-11-20-14-31l-5-20-1 31-1 31h30l-9-11zm66-33-5-18v70l5-17c2-10 2-26 0-35zm73 30c0-2-8-3-17-1l-17 3-4-19-4-19 22 6 23 6-11-11-11-11-15 6-16 6v39l13 5c12 4 37-2 37-10zm54 8 6-9-18 2-17 1v-30l18 1c9 1 17-2 17-7s-9-9-20-9h-21l-5 15-6 15 12 15c14 17 26 19 34 6zm33-38-5-18v70l5-17c2-10 2-26 0-35zm63 32 12-15-6-15-5-15h-32l-5 15c-7 18 2 45 14 45 5 0 15-7 22-15zm80-26v-19h-10c-5 0-10 6-10 14s-3 23-7 33l-7 18 17-14 17-13v-19zm33 29c-12-20-10-32 7-40l15-7h-18l-18-1-5 15-6 15 12 15c15 18 24 20 13 3zm82 2 6-10-15 6-16 6v-22h30v-30l-22 1-23 1 18 5 18 5-17 12-17 13 7 11c9 15 23 15 31 2zm85-34c-6-20-16-36-21-36h-10l5 9c4 5 2 21-4 35l-10 26h10c4 0 11-8 13-17l5-18 7 23c4 12 10 21 12 18 3-3 0-21-7-40zm166 26 3-12-6 10c-8 17-23 11-23-9v-20l18-4 17-5-23-1-23-1-5 15-6 15 12 15c14 17 32 15 36-3zm72-14 3-28h-21v54l-9-9c-5-6-11-19-14-30l-5-20-1 31-1 31 23-1 22-1 3-27zm32-5c0-32-5-28-14 10l-7 29 11-7 10-6v-26zm58 28 14-8-4-19-3-19-18-3-17-3-6 15c-7 18 1 46 13 46 4 0 14-4 21-9zm138-9 3-12-6 10c-8 17-23 11-23-9v-20l18-4 17-5-23-1-23-1-5 15-6 15 12 15c14 17 32 15 36-3zm92 6c7-7 12-20 12-30v-18h-50v15c0 8 5 15 11 15h10l-6-10-6-10h21v42l-16-6-15-6 6 10c8 13 18 13 33-2zm67 1 7-10-18 3-19 3v-30l17 1 18 2-6-9c-8-14-34-10-40 6l-6 15 12 15c15 18 26 19 35 4zm32-36-5-18v70l5-17c2-10 2-26 0-35zm63 32 12-15-6-15-5-15h-39l-5 13c-5 14 10 47 22 47 5 0 14-7 21-15zm68-26-4-24-5 33-6 33 10-10 9-9-4-23zm72 19v-10l-15 12c-8 7-16 10-16 6-5-23-3-32 11-38l15-8-20 3-20 2-3 19-4 19 13 7c15 10 39 2 39-12zm55 12 6-10-15 6-16 6v-22h30v-30l-22 1-23 1 18 5 18 5-17 12-17 13 7 11c9 15 23 15 31 2zM747 473l-5-18v60l5-12c2-7 2-21 0-30zm227-12c-7-9-24 13-24 32v22l13-25c8-14 12-27 11-29zm286 24v-25h-20v50h20v-25zm1000 0v-25h-20v50h20v-25zM1062 844l-22-15v-86l18-16c24-22 38-21 62 3l20 20v70l-20 20c-24 24-29 24-58 4zm436 5-17-10-7-33-6-34 14-29 13-28h60l13 28 13 28-6 29c-11 52-41 71-77 49zm658-11-16-22v-73l18-16c24-22 45-21 65 1l17 19v80l-18 16c-10 10-26 17-35 17h-16l-15-22zm-586-323v-17l11 4c6 2 11 8 11 13s-5 11-11 13l-11 4v-17zm-884-12c-3-3-6-12-6-20v-13h30v14c0 17-14 28-24 19zm508-7-6-17 6-6 6-7 12 12 12 12-12 12-11 11-7-17zm610 0-6-17 6-6 6-7 12 12 12 12-12 12-11 11-7-17zm386-6v-22l13 5c6 2 12 10 12 17s-6 15-12 18l-13 4v-22z"/></g><g fill="#034567" transform="matrix(.1 0 0 -.1 0 300)"><path d="M0 1500V0h3000v3000H0V1500zm1670 480v-620h-140l-2 398c-2 218-1 485 1 592l3 194 21 28 21 28h96v-620zm-199-182-4-438h-137v895l9 32 9 32 59 72 58 73 5-115c3-63 3-311 1-551zm-191 42v-330h-252l4 213 3 212 95 117 95 118h55v-330zm690 1v-330l-7-4c-5-2-61-2-125 1l-118 4v658h250v-329zm-990-185v-144l-16-6c-9-3-33-6-55-6h-39v-430h-80v539l10 25c5 14 35 57 67 96l57 70h56v-144zm1230-221v-365h-80l-2 218-3 217-52 3-53 3v289h190v-365zM740 1275v-205H560v282l52 64 51 64h77v-205zm1700 0v-205h-180v410h180v-205zm-1460-5v-200h-70v400h70v-200zm300 0v-200h-250v400h250v-200zm690 0v-200h-250v400h250v-200zm120 0v-200h-70v400h70v-200zm-620-75v-125h-140v250h140v-125zm200 0v-125h-152l6 23c3 12 6 68 6 125v102h140v-125zM918 973l3-22-20-10-20-11-15 16c-19 19-20 26-4 42l13 13 20-3 20-3 3-22zM624 865c20-63 39-115 41-115s21 52 41 115l37 115h67v-9c0-7-77-237-95-283l-7-18h-86l-7 18c-18 46-95 276-95 283v9h67l37-115zm515 34 32-11 14-29 15-28V723l-20-26-20-25-30-7-29-6-23 12c-13 7-26 17-30 23l-8 11V580h-70v320h70v-33l18 15c9 9 24 18 32 21s15 6 16 6c1 1 15-4 33-10zm251-19v-30h-23c-13 0-28-5-35-12l-12-12V670h-70v230h60v-31l26 20c15 12 33 21 40 21h14v-30zm173 19 38-10 19-32 20-32v-76l-15-29-15-30-32-16-31-16-40 5-40 6-25 25-25 25-4 53-4 53 20 32 20 32 33 10c18 5 35 10 38 10 3 1 22-4 43-10zm306-14 15-15 18 17 19 17h72l18-23 19-23V670h-60v141l-10 20-11 19h-47l-6-16c-3-9-6-49-6-90v-74h-60v141l-10 20-11 19h-17c-10 0-23-5-30-12l-12-12V670h-60v230h60v-35l8 11c4 6 16 16 27 22l20 12 25-6c14-3 31-12 39-19zm389-1 24-16 14-35 15-36-6-37-6-38-21-21c-39-42-89-51-144-25l-33 16-17 43-16 44 6 28c11 43 34 73 69 89l32 14 29-5c17-3 41-12 54-21zm232-4v-30h-23c-13 0-28-5-35-12l-12-12V670h-70v230h60v-31l26 20c15 12 33 21 40 21h14v-30zM920 785V670h-70v230h70V785zM647 524l4-11-26 5-27 5 4-24 3-24 23 2 23 3-6-10c-3-6-15-10-25-10h-19l-11 20-11 20 11 21 11 20 21-3c12-2 23-8 25-14zm949 8 12-7-2-32c-1-38-4-40-22-15l-13 17-1-17v-18h-20v80h18c9 0 22-4 28-8zm314-32v-40h-24c-14 0-28 5-31 10l-6 10 6 21 7 20 13-5 13-5 6 15c10 25 16 15 16-26zm87-22-4-23v90l4-22c2-13 2-33 0-45zM885 489c0-16-3-29-6-29-9 0-19 53-12 63l5 8 7-6c3-4 6-20 6-36zm-170 1v-25l-22-3-23-3v24c0 28 9 39 30 35l15-3v-25zm73-2 3-28h-21v40h-20v-40h-20v23c0 30 5 35 33 33l22-1 3-27zm58 20 7-11-16 6-17 6v-9c0-6 7-10 15-10h15v-30l-27 1-28 1 18 5 18 5-17 12-17 13 7 11c9 15 33 15 42 0zm94 0c0-4-4-8-9-8s-12-10-14-22l-4-23-2 31-1 31h15c8 0 15-4 15-9zm30-21v-21l9 10c5 5 11 18 14 29l5 20 1-33 1-33-22 3-23 3-3 29-4 28 11-7c6-3 11-16 11-28zm95 22 7-10-18 3-19 3v-30l19 3 18 3-7-10c-9-16-35-13-41 4-13 33 24 63 41 34zm60 1 6-10h-31v-32l15 6 15 5v-20l-22 3-23 3-3 19-4 19 14 8c17 11 26 11 33-1zm32-37-5-18v70l5-17c2-10 2-26 0-35zm68 17v-25l-21-3-21-3-7 17-6 17 11 14 12 14 16-3 16-3v-25zm67 16c4-6 8-19 8-28v-18h-20v40h-20v-40h-20v23c0 13 2 26 5 29 9 9 40 5 47-6zm66-19 3-27h-42l-5 15c-4 8-3 22 0 31l6 15 17-3 18-3 3-28zm57 23 6-10-18 6-18 6 23-19 23-19-7-7c-4-4-15-7-25-7h-18l3 28c2 15 4 28 5 30 3 6 20 1 26-8zm65-18 1-17 14 25 14 25 1-17c0-20-20-68-29-68-4 0-7 8-7 18 0 9-4 28-8 41l-8 24 11-7c6-4 11-15 11-24zm188 5 3-17-18-1h-18l20-10 20-9-25 3-25 2-3 19-4 19 14 8c18 12 32 6 36-14zm99-12 1-30-5 23c-2 12-9 22-14 22h-9v-40h-20v40h-9c-5 0-12-10-14-22l-4-23-2 31-1 31 38-1 37-1 2-30zm68 5v-25l-19-3-19-4-8 13-8 13 10 19 10 18 17-3 17-3v-25zm135 14 13-15-23-6-24-6 20-8 19-8h-23l-23-1-5 15-6 15 12 15c16 19 24 19 40-1zm98-17 3-27h-51v30h15c8 0 15 4 15 10v9l-17-6-16-6 7 12 8 12 16-3 17-3 3-28zm58 21 7-11-16 6-15 6-6-14-5-14 9-6c6-4 15-3 20 0l10 6v-22l-22 3-23 3-3 19-4 19 14 8c18 12 26 11 34-3zm31-35-5-18v70l5-17c2-10 2-26 0-35zm68 17v-25l-21-3-21-3-7 17-6 17 11 14 12 14 16-3 16-3v-25zm67 15c4-5 8-18 8-27v-18h-20v40h-20v-40h-20v59l23-2c12 0 25-6 29-12zm66-18 3-27h-42l-5 15c-4 8-3 22 0 31l6 15 17-3 18-3 3-28zm57 23 6-10-18 6-18 6 18-15c9-8 17-19 17-26v-11l-22 1h-23l19 8 20 8-17 6-17 6v31h14c8 0 18-4 21-10zM1052 838l-12-12v-86l24-15 25-16 20 11 21 11 6 25 7 25-10 32-9 32-29 3-30 3-13-13zm451 14c-6-4-17-20-23-36l-11-29 11-33 11-33 18-6c40-13 65 18 63 78l-1 29-17 19c-18 20-32 23-51 11zm657-12-20-20v-66l16-22 15-22h38l15 22 16 22v66l-20 20c-11 11-24 20-30 20-5 0-19-9-30-20zm-590-330c0-5 5-10 10-10 6 0 10 5 10 10 0 6-4 10-10 10-5 0-10-4-10-10zm300-25c0-8 5-15 10-15 6 0 10 7 10 15s-4 15-10 15c-5 0-10-7-10-15zM684 496l-6-17 6-6 6-7 12 12 12 12-12 12-11 11-7-17zm510 1-6-18 6-6 6-7 10 10 9 9-9 15-9 14-7-17zm136 3c0-5 5-10 11-10h10l-6 10c-3 6-8 10-11 10-2 0-4-4-4-10zm310 0c0-5 5-10 11-10h10l-6 10c-3 6-8 10-11 10-2 0-4-4-4-10zm164-4-6-17 6-6 6-7 12 12 12 12-12 12-11 11-7-17zm136 4c0-5 5-10 11-10h10l-6 10c-3 6-8 10-11 10-2 0-4-4-4-10zm255-3c-4-10-5-21-1-24 10-10 18 4 13 24l-4 18-8-18zm135 3c0-5 5-10 11-10h10l-6 10c-3 6-8 10-11 10-2 0-4-4-4-10z"/></g><g fill="#00070b" transform="matrix(.1 0 0 -.1 0 300)"><path d="M0 1500V0h3000v3000H0V1500zm1478 483 2-623h-150v1251l73-3 72-3 3-622zm192 2v-625h-150v1237l7 6c3 4 37 7 75 7h68v-625zm-390-150v-335h-250v670h250v-335zm690 0v-335h-250v670h250v-335zm240-395v-370h-90v430h-100v310h190v-370zM980 1650v-150H880v-430h-90v730h190v-150zm-242-373 2-207H547l6 122c4 66 7 158 7 204v83l73 4c39 2 79 3 87 2h15l3-208zm1702 3v-210h-180v407l7 6c3 4 44 7 90 7h83v-210zm-1460-5v-205h-80v198c0 109 3 202 7 205 3 4 21 7 40 7h33v-205zm300 0v-205h-250v410h250v-205zm690 0v-205h-250v410h250v-205zm128-2 2-203h-80v411l38-3 37-3 3-202zm-618-78v-125h-150v250h150v-125zm190 0v-125h-150v250h150v-125zM920 981l10-20-16-16-16-16-16 3c-8 2-19 10-25 19l-10 16 6 17 6 16h50l11-19zM628 861l37-114 37 114 36 114 41 3 41 3-45-128c-24-70-49-143-55-160l-12-33h-86l-12 33c-6 17-31 90-55 160l-45 128 41-3 40-3 37-114zm292-77V659l-32 3-33 3-3 109c-1 61 0 116 2 123l5 13h61V784zm116 111 6-15 21 15 21 15h58l28-28 29-29 7-37 7-38-12-38-11-39-27-20-26-21h-53l-22 16-22 15V569l-32 3-33 3-3 155c-1 85 0 160 2 167l5 13h52l5-15zm279 5 6-9 24 11 24 11 15-6 16-6v-51h-21c-11 0-29-5-40-10l-19-11V660h-70v250h59l6-10zm265-5c16-8 36-25 44-37l16-22V728l-34-34-34-34h-92l-30 28-31 27-8 35-7 35 7 33c16 77 97 114 169 77zm166 0 6-15 21 15c12 8 31 15 43 15h22l23-19 24-19 24 19 24 19h44l27-21 26-20V659l-32 3-33 3-5 90-5 90-18 3-18 4-14-12-15-12V659l-32 3-33 3-5 90-5 90-19 3-20 4-13-18-13-18V659l-32 3-33 3-3 109c-1 61 0 116 2 123l5 13h52l5-15zm500 0 35-14 14-35c8-20 15-51 15-69v-34l-23-34-23-34-37-9-37-10-37 10-36 9-19 26-19 26-6 40-5 40 18 38 17 37 31 14c41 17 69 17 112-1zm170 0 6-14 15 15 15 15 22-3 21-3 3-27 3-28h-50l-15-16-16-15V660h-70v250h61l5-15zM651 524l13-15-30 3-29 3v-30l23 1 22 1v-27h-60l-6 25-6 25 12 15c16 19 44 19 61-1zm509-22v-39l-41-1-40-2 3 28 3 27 30 1 30 1-2 11c-2 7 2 12 7 12h10v-38zm447-4c1-40-5-46-25-26l-12 12v-12c0-7-4-12-10-12h-10v81l28-3 27-3 2-37zm303 2v-40h-24c-14 0-28 5-31 10l-6 10-15-15-16-15-15 9-16 8-18-4-19-5-1 23-2 24-4-22c-2-13-9-23-14-23h-9l-1 23-2 22-4-22-4-23-22 2c-12 0-26 0-32-2-5-1-16-2-23-1l-13 1 3 28 3 27 70 1 70 2 8-12 9-11 5 13 5 12h18c10 0 21-4 24-9l6-9 25 11c14 7 25 15 25 20 0 4 5 7 10 7h10v-40zm100 9v-30l10 6 9 6-6 15-6 16 24-4 24-3 3-26 3-26-20-6-21-5-5 9-6 8-14-6-15-5v82h20v-31zm150-10v-41l-12 5c-7 2-20 1-29-4l-15-8-13 8-13 8 4 24 3 24 23 3 22 3v-30l-15 5-15 6v-30l20 5 20 5 1 22c1 11 1 24 0 29 0 4 4 7 9 7h10v-41zM937 515c2-1-3-14-10-29l-12-27-25 3-25 3-3 33-3 33 38-7c21-4 39-8 40-9zm-218-12 10-18 1 18v18l28-3 27-3 3-27 3-28h-21v40h-20v-40h-10c-5 0-10 5-10 11v10l-16-15-15-16-20 10c-20 11-23 19-13 44l6 16h37l10-17zm129-12 1-29-13-5c-7-3-17-2-23 1l-11 7 3 25c3 32 2 30 23 30h19l1-29zm122 3v-25l10 6c6 3 10 15 10 26v19h10c6 0 10-5 10-11v-11l15 12 15 12 15-6c18-7 20-24 3-22-7 0-13-3-13-9v-10l13 3c17 4 15-15-3-22l-14-5-16 15-15 15v-21h-60v60h20v-26zm258-5 3-26-14-6-15-6-17 13-17 13 7 22 7 22 21-3 22-3 3-26zm70-1 3-28h-21v40h-20v-40h-20v61l28-3 27-3 3-27zm62 22v-10l19 11 18 12 19-8 19-7-14-5-13-5 13-9 14-9-19-15-19-15-14 11-13 11 7 12c3 6-4 1-16-11l-21-22-15 5-15 6v22c0 27 8 36 32 36h18v-10zm120-7v-17l14 20 14 19 7-6 6-7-18-37-18-38-9 4c-5 2-10 21-12 42l-2 37h9c5 0 9-8 9-17zm498-7 4-20-18-13-17-13-14 11c-14 12-17 41-6 53 4 4 16 6 27 4l21-3 3-19zm247-6v-25l-23-3-22-3-6 15c-3 9-3 23 0 32l6 15 22-3 23-3v-25zm71 15 6-16 14 18 13 18 20-12 20-13 6 10c3 6 15 10 27 10h20l-5-14-6-15 12-5 12-5-18-15-19-15-15 6-14 6 5 13 5 14h-9c-6 0-10-6-10-14s-7-16-15-20l-14-5-16 15-15 15v-10c0-6-4-11-10-11h-10v40h-20v-40h-20v60h51l5-15zM1050 831c-5-11-10-32-10-46s5-35 10-46l11-19h47l13 16 13 16v66l-13 16-13 16h-47l-11-19zm442 7-12-12v-85l22-15 22-16 21 14 20 13 3 36 3 36-11 21-11 20h-22c-13 0-28-5-35-12zm658-17-12-30 7-30 7-31 19-10 19-11 20 11 19 10 6 33 6 32-10 28-11 27h-58l-12-29zM1100 485v-13l20 5c11 3 20 8 20 12s-9 7-20 8l-20 2v-14zm470 25c0-5 5-10 10-10 6 0 10 5 10 10 0 6-4 10-10 10-5 0-10-4-10-10zm230-19c0-6 5-13 10-16l10-6v15c0 9-4 16-10 16-5 0-10-4-10-9zm70-1c0-5 5-10 10-10 6 0 10 5 10 10 0 6-4 10-10 10-5 0-10-4-10-10zm-978 0v-25l5 13c2 6 2 18 0 25l-5 12v-25zm-212 1c0-6 5-13 10-16l10-6v15c0 9-4 16-10 16-5 0-10-4-10-9zm510 0c0-6 5-13 10-16l10-6v15c0 9-4 16-10 16-5 0-10-4-10-9zm1000 0c0-6 5-13 10-16l10-6v15c0 9-4 16-10 16-5 0-10-4-10-9z"/></g></g></svg>